<svg version="1.2" xmlns="http://www.w3.org/2000/svg" viewBox="0 0 25 98" width="25" height="98"><defs><clipPath clipPathUnits="userSpaceOnUse" id="cp1"><path d="m-106-4952h1920v9844h-1920z"/></clipPath></defs><style>.a{opacity:.5;fill:#3f3e3e}</style><g clip-path="url(#cp1)"><path class="a" d="m24.7 72.7q0 11.1 0 22.3c0 1.8-1.9 2.5-3.4 1.9-8.8-3.7-15.5-10.1-20.1-18.4-0.8-1.3 1.1-2.4 1.9-1.2 3.2 4.5 7.3 8.3 12 11.4-7.3-12.9-11.3-27.3-11.6-42.1-0.4-15.5 3-33.5 12.4-46.1 0.8-1 2.9-0.4 2.3 1-5.8 14.6-10.2 28.2-9.7 44.2 0.4 14.4 4.4 28.4 11.7 40.8q-0.1-6.9-0.1-13.8c0-3 4.6-3 4.6 0z"/></g></svg>