<svg version="1.2" xmlns="http://www.w3.org/2000/svg" viewBox="0 0 52 89" width="52" height="89"><defs><clipPath clipPathUnits="userSpaceOnUse" id="cp1"><path d="m-141-4981h1920v9844h-1920z"/></clipPath></defs><style>.a{opacity:.5;fill:#3f3e3e}</style><g clip-path="url(#cp1)"><path class="a" d="m48.9 88c-9.7-2.8-20.1-6.6-28.2-12.8-0.9-0.7-0.4-2.6 0.9-2.1 4.9 1.9 9.6 3.9 14.4 5.8-10.5-8.7-19.2-19.5-25.3-31.8-6.9-13.8-12.1-30.9-9.6-46.5 0.1-0.6 1.2-0.6 1.3 0 2.4 15.6 4.6 30.1 12.1 44.2 7.3 13.8 17.7 25.6 30.5 34.5-1.8-5.1-3.7-10.1-6.1-15-1.3-2.6 2.7-5 4-2.3 3.6 7.5 6.5 15.2 8.7 23.3 0.4 1.6-1.1 3.2-2.7 2.7z"/></g></svg>